<svg id="bowl-container" width="75" height="75" viewBox="0 0 75 75" fill="none" xmlns="http://www.w3.org/2000/svg">
<rect id="bowl=background" width="75" height="75" rx="5" fill="#191A1D"/>
<path id="bowl-top" d="M60 39C60 32.3696 57.3661 26.0107 52.6777 21.3223C47.9893 16.6339 41.6304 14 35 14C28.3696 14 22.0107 16.6339 17.3223 21.3223C12.6339 26.0107 10 32.3696 10 39L32.965 39C32.965 38.4603 33.1794 37.9427 33.561 37.561C33.9427 37.1794 34.4603 36.965 35 36.965C35.5397 36.965 36.0573 37.1794 36.439 37.561C36.8206 37.9427 37.035 38.4603 37.035 39H60Z" fill="#F4B860" fill-opacity="0.25"/>
<circle id="bowl-middle-circle" cx="35" cy="39" r="2" fill="#9EE493" fill-opacity="0.37"/>
<line id="chopstick-1" x1="12.4527" y1="12.7878" x2="27.4527" y2="44.7878" stroke="#EBD7D7"/>
<line id="chopstick-2" x1="7.37297" y1="16.667" x2="32.373" y2="44.667" stroke="#EBD7D7"/>
<path id="bowl-bottom" d="M60 39C60 45.6304 57.3661 51.9893 52.6777 56.6777C47.9893 61.3661 41.6304 64 35 64C28.3696 64 22.0107 61.3661 17.3223 56.6777C12.6339 51.9893 10 45.6304 10 39L32.9651 39C32.9651 39.5397 33.1795 40.0573 33.5611 40.4389C33.9427 40.8205 34.4603 41.0349 35 41.0349C35.5397 41.0349 36.0573 40.8205 36.4389 40.4389C36.8205 40.0573 37.0349 39.5397 37.0349 39H60Z" fill="#DBB378"/>
<path id="bowl-bottom-edge" d="M60 39C60 45.6304 57.3661 51.9893 52.6777 56.6777C47.9893 61.3661 41.6304 64 35 64C28.3696 64 22.0107 61.3661 17.3223 56.6777C12.6339 51.9893 10 45.6304 10 39L13.75 39C13.75 44.6359 15.9888 50.0409 19.974 54.026C23.9591 58.0112 29.3642 60.25 35 60.25C40.6359 60.25 46.0409 58.0112 50.026 54.026C54.0112 50.0409 56.25 44.6359 56.25 39H60Z" fill="#65A45B"/>
</svg>